<svg width="168" height="143" viewBox="0 0 168 143" fill="none" xmlns="http://www.w3.org/2000/svg">
<path d="M136.867 18.7772C126.167 7.07724 109.567 0.977244 93.6666 0.177243C77.8666 -0.522757 62.7666 4.07724 47.8666 11.1772C32.8666 18.2772 17.9666 27.7772 9.26657 42.3772C0.666574 56.9772 -1.83344 76.6772 4.36656 93.0772C10.4666 109.377 25.2666 122.577 41.2666 128.177C57.2666 133.877 74.5666 132.177 93.7666 130.877C112.967 129.677 134.067 128.877 144.967 118.077C155.767 107.277 156.467 86.3772 154.367 67.1772C152.267 48.0772 147.567 30.5772 136.867 18.7772Z" fill="#EDFDFD"/>
<path d="M67.7608 141.897L67.7606 141.897C48.3608 140.385 25.1431 126.383 15.1805 103.558C5.20723 80.5811 8.63295 48.7684 25.3869 30.25C42.259 11.7417 72.5573 6.52877 97.3722 11.0866L97.3742 11.087C122.013 15.5094 141.096 29.6602 153.485 47.2329C159.682 56.0223 164.163 65.6228 166.228 74.6209C168.294 83.6268 167.928 91.9732 164.512 98.3088C161.03 104.711 154.479 109.165 146.51 113.047C142.531 114.985 138.22 116.77 133.788 118.584C133.438 118.727 133.087 118.871 132.736 119.014C128.643 120.688 124.464 122.396 120.385 124.274C116.629 126.004 112.958 127.865 109.33 129.705C108.682 130.034 108.035 130.362 107.389 130.689C103.124 132.845 98.9038 134.935 94.6323 136.723C86.0921 140.297 77.3742 142.651 67.7608 141.897Z" stroke="#C4F1F9"/>
</svg>
