<svg width="168" height="144" viewBox="0 0 168 144" fill="none" xmlns="http://www.w3.org/2000/svg">
    <path d="M136.43 19.3915C125.73 7.6915 109.13 1.5915 93.2299 0.791501C77.4299 0.0915005 62.3299 4.6915 47.4299 11.7915C32.4299 18.8915 17.5299 28.3915 8.82987 42.9915C0.229867 57.5915 -2.27014 77.2915 3.92986 93.6915C10.0299 109.991 24.8299 123.191 40.8299 128.791C56.8299 134.491 74.1299 132.791 93.3299 131.491C112.53 130.292 133.63 129.491 144.53 118.691C155.33 107.891 156.03 86.9915 153.93 67.7915C151.83 48.6915 147.13 31.1915 136.43 19.3915Z" fill="#1A202C" />
    <path d="M67.3241 142.511L67.3239 142.511C47.9241 140.999 24.7063 126.997 14.7438 104.172C4.77052 81.1954 8.19624 49.3826 24.9502 30.8642C41.8223 12.3559 72.1206 7.14303 96.9355 11.7009L96.9375 11.7012C121.577 16.1236 140.659 30.2745 153.049 47.8471C159.245 56.6366 163.726 66.237 165.791 75.2351C167.857 84.2411 167.491 92.5874 164.075 98.923C160.594 105.325 154.043 109.779 146.073 113.661C142.094 115.599 137.783 117.385 133.351 119.198C133.001 119.342 132.65 119.485 132.299 119.629C128.206 121.302 124.027 123.011 119.949 124.889C116.192 126.618 112.522 128.48 108.893 130.32C108.245 130.648 107.598 130.977 106.952 131.303C102.687 133.459 98.4671 135.549 94.1955 137.337C85.6553 140.911 76.9375 143.265 67.3241 142.511Z" stroke="#9DECF9" />
</svg>