<svg fill="none" height="80" viewBox="0 0 80 80" width="80" xmlns="http://www.w3.org/2000/svg" xmlns:xlink="http://www.w3.org/1999/xlink"><clipPath id="a"><path d="m12 12h56v56h-56z"/></clipPath><g clip-path="url(#a)" fill="none"><path d="m40 52c7.1797 0 13-5.8203 13-13s-5.8203-13-13-13-13 5.8203-13 13 5.8203 13 13 13z" fill="#99f3bc"/><g fill="#48bb78"><rect height="5.39217" rx="2.69608" width="5.39217" x="37.8824" y="12"/><rect height="5.39217" rx="2.69608" width="5.39217" x="37.8824" y="61.6079"/><rect height="5.39217" rx="2.69608" transform="matrix(.70710678 .70710678 -.70710678 .70710678 29.854977 -35.333089)" width="5.39217" x="57.5783" y="18.3716"/><rect height="5.39217" rx="2.69608" transform="matrix(.70710678 .70710678 -.70710678 .70710678 44.384801 -.254989)" width="5.39217" x="22.5002" y="53.4497"/><rect height="5.39217" rx="2.69608" transform="matrix(0 1 -1 0 103.8037 -30.1963)" width="5.39217" x="67" y="36.8037"/><rect height="5.39217" rx="2.69608" transform="matrix(0 1 -1 0 54.1958 19.4116)" width="5.39217" x="17.3921" y="36.8037"/><rect height="5.39217" rx="2.69608" transform="matrix(-.70710678 .70710678 -.70710678 -.70710678 143.450857 53.58071)" width="5.39217" x="60.6285" y="56.5"/><rect height="5.39217" rx="2.69608" transform="matrix(-.70710678 .70710678 -.70710678 -.70710678 58.764478 18.501756)" width="5.39217" x="25.5504" y="21.4214"/></g></g></svg>