<svg fill="none" height="80" viewBox="0 0 80 80" width="80" xmlns="http://www.w3.org/2000/svg"><g stroke="#ecc94b" stroke-width="2"><path d="m36 69c1.333.667 2.667 1 4 1s2.667-.333 4-1" fill="none" stroke-linecap="round"/><path d="m35 65c1.667.667 3.333 1 5 1s3.333-.333 5-1" fill="none" stroke-linecap="round"/><path d="m35 61c1.667.667 3.333 1 5 1s3.333-.333 5-1" fill="none" stroke-linecap="round"/><path clip-rule="evenodd" d="m40 58c3.716 0 7 0 7-3 0-6.402 8-7 8-16 0-8.284-6.716-15-15-15s-15 6.716-15 15c0 9 8 9.644 8 16 0 3 3.248 3 7 3z" fill="#fffdf6" fill-rule="evenodd"/><g fill="none" stroke-linecap="round"><path d="m38 56c-.667-4.667-1.333-8-2-10s-1.333-3.333-2-4l3 2 1-2 2 2 2-2 1 2 3-2c-.667.667-1.333 2-2 4s-1.333 5.333-2 10" stroke-linejoin="round"/><path d="m40 14.6921v-6.41378"/><path d="m57.8279 22.1524 4.5352-4.5352"/><path d="m64.5862 38.2095h6.4138"/><path d="m56.7589 57.1064 4.5352 4.5353"/><path d="m22.8743 57.1064-4.5352 4.5353"/><path d="m15.4138 38.2095h-6.4138"/><path d="m21.8053 22.1524-4.5352-4.5352"/></g></g></svg>