<svg fill="none" height="80" viewBox="0 0 80 80" width="80" xmlns="http://www.w3.org/2000/svg"><path clip-rule="evenodd" d="m29.3687 12h22.7501c1.4499 0 2.625 1.1751 2.625 2.625v50.7502c0 1.4499-1.1751 2.625-2.625 2.625h-22.7501c-1.4499 0-2.625-1.1751-2.625-2.625v-50.7502c0-1.4499 1.1751-2.625 2.625-2.625zm0 6.125c-.483 0-.875.392-.875.875v41.1252c0 .483.392.875.875.875h22.7501c.483 0 .875-.392.875-.875v-41.1252c0-.483-.392-.875-.875-.875zm11.3751 48.1252c.9668 0 1.75-.7831 1.75-1.75s-.7832-1.75-1.75-1.75c-.9669 0-1.75.7831-1.75 1.75s.7831 1.75 1.75 1.75zm-2.625-51.6252c-.483 0-.8751.392-.8751.875s.3921.875.8751.875h5.25c.483 0 .875-.392.875-.875s-.392-.875-.875-.875z" fill="#f56565" fill-rule="evenodd"/><path d="m49.4938 35.625h-17.5c-.9665 0-1.75.7835-1.75 1.75v2.625c0 .9665.7835 1.75 1.75 1.75h17.5c.9665 0 1.75-.7835 1.75-1.75v-2.625c0-.9665-.7835-1.75-1.75-1.75z" fill="#ffb5b2"/><path d="m49.4938 28.625h-17.5c-.9665 0-1.75.7835-1.75 1.75v2.625c0 .9665.7835 1.75 1.75 1.75h17.5c.9665 0 1.75-.7835 1.75-1.75v-2.625c0-.9665-.7835-1.75-1.75-1.75z" fill="#ffdddc"/><g fill="none" stroke="#ffb5b2" stroke-linecap="round" stroke-width="1.75001"><path d="m74.8745 32.999c2.8233 4.2438 2.8446 9.7388 0 14.0001"/><path d="m65.2753 30.3745c4.2663 5.3157 4.2663 13.9344 0 19.2501"/><path d="m16.2124 30.3745c-4.2664 5.3157-4.2664 13.9344 0 19.2501"/><path d="m6.61312 32.999c-2.82326 4.2438-2.84459 9.7388 0 14.0001"/></g></svg>