<svg fill="none" height="80" viewBox="0 0 80 80" width="80" xmlns="http://www.w3.org/2000/svg" xmlns:xlink="http://www.w3.org/1999/xlink"><clipPath id="a"><path d="m40 14h34v52h-34z"/></clipPath><path clip-rule="evenodd" d="m7 12h66c1.657 0 3 1.343 3 3v50c0 1.657-1.343 3-3 3h-66c-1.657 0-3-1.343-3-3v-50c0-1.657 1.343-3 3-3zm33 2v52h33c.552 0 1-.448 1-1v-50c0-.552-.448-1-1-1z" fill="#9f7aea" fill-rule="evenodd"/><g fill="none"><g clip-path="url(#a)"><path d="m68 6h-22c-1.1046 0-2 .89543-2 2v16c0 1.1046.8954 2 2 2h22c1.1046 0 2-.8954 2-2v-16c0-1.10457-.8954-2-2-2z" fill="#ede6ff"/><path d="m68 30h-22c-1.1046 0-2 .8954-2 2v16c0 1.1046.8954 2 2 2h22c1.1046 0 2-.8954 2-2v-16c0-1.1046-.8954-2-2-2z" fill="#d8c8ff"/><path d="m68 54h-22c-1.1046 0-2 .8954-2 2v16c0 1.1046.8954 2 2 2h22c1.1046 0 2-.8954 2-2v-16c0-1.1046-.8954-2-2-2z" fill="#ede6ff"/></g><path d="m10 21 2 2-2 2" stroke="#fff" stroke-linecap="round" stroke-width="2"/><path d="m18 23h5" stroke="#fff" stroke-linecap="round" stroke-width="2"/><path d="m27 23h7" stroke="#7a5dc1" stroke-linecap="round" stroke-width="2"/><path d="m10 31h3" stroke="#4c3487" stroke-linecap="round" stroke-width="2"/><path d="m17 31h8" stroke="#7a5dc1" stroke-linecap="round" stroke-width="2"/><path d="m29 31h5" stroke="#fff" stroke-linecap="round" stroke-width="2"/><path d="m10 39h4" stroke="#fff" stroke-linecap="round" stroke-width="2"/><path d="m18 39h8" stroke="#7a5dc1" stroke-linecap="round" stroke-width="2"/><path d="m30 39h4" stroke="#4c3487" stroke-linecap="round" stroke-width="2"/><path d="m10 47h12" stroke="#fff" stroke-linecap="round" stroke-width="2"/></g></svg>