<svg fill="none" height="80" viewBox="0 0 80 80" width="80" xmlns="http://www.w3.org/2000/svg"><g fill="none"><g stroke="#ffcde6" stroke-linecap="round" stroke-width="1.24747"><path d="m18.5627 19.6548 8.3322 8.2868"/><path d="m26.8949 19.6548-8.3322 8.2868"/><path d="m18.5627 33.7314 41.661 8.9774"/><path d="m60.2237 33.7314-41.661 8.9774"/><path d="m26.2005 18.9644h-6.9435c-.7669 0-1.3887.6183-1.3887 1.3811v6.9057c0 .7627.6218 1.3811 1.3887 1.3811h6.9435c.767 0 1.3887-.6184 1.3887-1.3811v-6.9057c0-.7628-.6217-1.3811-1.3887-1.3811z"/><path d="m58.8349 33.041h-38.8835c-1.1504 0-2.0831.773-2.0831 1.7264v6.9057c0 .9535.9327 1.7264 2.0831 1.7264h38.8835c1.1505 0 2.0831-.7729 2.0831-1.7264v-6.9057c0-.9534-.9326-1.7264-2.0831-1.7264z"/><path d="m35.0363 48.6055h-15.1078c-1.1378 0-2.0602.9275-2.0602 2.0717v8.2868c0 1.1441.9224 2.0717 2.0602 2.0717h15.1078c1.1378 0 2.0602-.9276 2.0602-2.0717v-8.2868c0-1.1442-.9224-2.0717-2.0602-2.0717z"/><path d="m59.0715 48.6055h-15.1078c-1.1378 0-2.0602.9275-2.0602 2.0717v8.2868c0 1.1441.9224 2.0717 2.0602 2.0717h15.1078c1.1378 0 2.0601-.9276 2.0601-2.0717v-8.2868c0-1.1442-.9223-2.0717-2.0601-2.0717z"/><path d="m37.3101 23.7988h5.5548"/><path d="m47.031 23.7983h4.1661"/><path d="m55.3632 23.7983h5.5548"/></g><rect height="54" rx="2" stroke="#ed64a6" stroke-width="2" width="70" x="5" y="13"/></g></svg>