<svg fill="none" height="80" viewBox="0 0 80 80" width="80" xmlns="http://www.w3.org/2000/svg"><path clip-rule="evenodd" d="m7 12h66c1.657 0 3 1.343 3 3v50c0 1.657-1.343 3-3 3h-66c-1.657 0-3-1.343-3-3v-50c0-1.657 1.343-3 3-3zm0 14c-.552 0-1 .448-1 1v38c0 .552.448 1 1 1h66c.552 0 1-.448 1-1v-38c0-.552-.448-1-1-1z" fill="#38b2ac" fill-rule="evenodd"/><path d="m69 30h-58c-.5523 0-1 .4477-1 1v30c0 .5523.4477 1 1 1h58c.5523 0 1-.4477 1-1v-30c0-.5523-.4477-1-1-1z" fill="#d9eef2"/><path clip-rule="evenodd" d="m55 42v11.918l3-2.979 2.5 4.966s.676.214 1 0c.324-.215.646-.646.5-.993-.688-1.64-2.5-4.966-2.5-4.966h3.5z" fill="#000" fill-rule="evenodd"/><path d="m26 19h44" fill="none" stroke="#fff" stroke-dasharray="44 44" stroke-linecap="round" stroke-width="4"/><g clip-rule="evenodd" fill="#fff" fill-rule="evenodd"><path d="m8 19 4-3v6z"/><path d="m20 19-4 3v-6z"/></g></svg>